<?xml version="1.0" encoding="UTF-8"?><svg id="uuid-523f19e0-3dda-4367-b4b9-9d40503eac3a" xmlns="http://www.w3.org/2000/svg" xmlns:xlink="http://www.w3.org/1999/xlink" viewBox="0 0 72.45 48.3">
<title>Chroma logo - Brandlogos.net</title><defs><mask id="uuid-3457f72e-d90e-47b1-a4dd-5abf489eba98" x="0" y="0" width="72.45" height="48.3" maskUnits="userSpaceOnUse"><g id="uuid-2e962b04-c300-4a2b-9d2f-65c7a3f0f1a9"><path d="M72.45,0H0v48.3h72.45V0Z" style="fill:#fff;"/></g></mask></defs><g style="mask:url(#uuid-3457f72e-d90e-47b1-a4dd-5abf489eba98);"><path d="M24.15,0C10.81,0,0,10.81,0,24.15s10.81,24.15,24.15,24.15,24.15-10.81,24.15-24.15S37.49,0,24.15,0" style="fill:#327eff;"/><path d="M48.3,0c-13.34,0-24.15,10.81-24.15,24.15s10.81,24.15,24.15,24.15,24.15-10.81,24.15-24.15S61.64,0,48.3,0" style="fill:#ffde2d;"/><path d="M24.15,24.15C24.15,10.81,34.96,0,48.3,0v24.15h-24.15ZM48.3,24.15c0,13.34-10.81,24.15-24.15,24.15v-24.15h24.15Z" style="fill:#ff6446;"/></g></svg>